<svg width="123" height="117" viewBox="0 0 123 117" fill="none" xmlns="http://www.w3.org/2000/svg">
<rect width="123" height="117" rx="30" fill="white"/>
<rect width="123" height="117" rx="30" fill="#FCD11E"/>
<g clip-path="url(#clip0_106_251)">
<path d="M71.3463 20.8467C71.4566 20.7361 71.5876 20.6484 71.7319 20.5885C71.8762 20.5287 72.0308 20.4979 72.187 20.4979C72.3432 20.4979 72.4979 20.5287 72.6422 20.5885C72.7864 20.6484 72.9175 20.7361 73.0278 20.8467L80.1528 27.9717C80.2634 28.082 80.3511 28.2131 80.411 28.3574C80.4708 28.5016 80.5017 28.6563 80.5017 28.8125C80.5017 28.9687 80.4708 29.1233 80.411 29.2676C80.3511 29.4119 80.2634 29.5429 80.1528 29.6532L56.4028 53.4032C56.2888 53.5164 56.1531 53.6053 56.0038 53.6645L44.1288 58.4145C43.913 58.5009 43.6766 58.522 43.4489 58.4753C43.2212 58.4286 43.0122 58.3161 42.8478 58.1517C42.6834 57.9874 42.5709 57.7784 42.5242 57.5507C42.4775 57.3229 42.4987 57.0865 42.585 56.8707L47.335 44.9957C47.3942 44.8464 47.4831 44.7107 47.5963 44.5967L71.3463 20.8467ZM69.1162 26.4375L74.562 31.8834L77.6329 28.8125L72.187 23.3666L69.1162 26.4375ZM72.8829 33.5625L67.437 28.1166L51.9995 43.5541V44.25H53.187C53.502 44.25 53.804 44.3751 54.0267 44.5978C54.2494 44.8205 54.3745 45.1225 54.3745 45.4375V46.625H55.562C55.877 46.625 56.179 46.7501 56.4017 46.9728C56.6244 47.1955 56.7495 47.4975 56.7495 47.8125V49H57.4454L72.8829 33.5625ZM49.7005 45.8531L49.4488 46.1049L45.8198 55.1797L54.8947 51.5507L55.1464 51.299C54.9199 51.2143 54.7246 51.0626 54.5867 50.8639C54.4487 50.6653 54.3747 50.4293 54.3745 50.1875V49H53.187C52.8721 49 52.57 48.8749 52.3474 48.6522C52.1247 48.4295 51.9995 48.1274 51.9995 47.8125V46.625H50.812C50.5702 46.6248 50.3342 46.5508 50.1356 46.4129C49.937 46.2749 49.7852 46.0796 49.7005 45.8531Z" fill="black"/>
</g>
<path d="M36.36 73.5H48.1V75.6H36.36V73.5ZM34.32 79.28H51.08V81.38H34.32V79.28ZM46.5 73.5H49.12V74.76C49.12 76.08 49.12 77.76 48.64 79.9L46.02 79.66C46.5 77.56 46.5 76.06 46.5 74.76V73.5ZM36.18 82.64H49.06V87.86H38.86V89.74H36.2V85.9H46.42V84.7H36.18V82.64ZM36.2 89.1H49.54V91.16H36.2V89.1ZM56.0584 74.08H58.0784V76.18C58.0784 79.36 56.9184 82.44 53.9584 83.72L52.5984 81.76C55.0984 80.66 56.0584 78.34 56.0584 76.18V74.08ZM56.6984 74.08H58.7184V76.18C58.7184 78.3 59.6184 80.72 62.1984 81.88L61.0584 84C57.8184 82.66 56.6984 79.32 56.6984 76.18V74.08ZM63.4184 74.08H65.4184V76.18C65.4184 79.36 64.2984 82.68 61.0584 84L59.9384 81.88C62.4984 80.74 63.4184 78.34 63.4184 76.18V74.08ZM64.0784 74.08H66.0984V76.18C66.0984 78.42 67.0384 80.68 69.5584 81.76L68.1784 83.72C65.2184 82.46 64.0784 79.44 64.0784 76.18V74.08ZM52.6984 86.84H69.4584V89H52.6984V86.84ZM83.8569 72.76H86.5369V91.28H83.8569V72.76ZM78.3969 74.68H81.0369C81.0369 80.34 79.1169 84.98 72.5369 88.16L71.1569 86.04C76.4769 83.48 78.3969 80.12 78.3969 75.16V74.68ZM72.1369 74.68H79.6569V76.78H72.1369V74.68Z" fill="black"/>
<path d="M36.36 73.5H48.1V75.6H36.36V73.5ZM34.32 79.28H51.08V81.38H34.32V79.28ZM46.5 73.5H49.12V74.76C49.12 76.08 49.12 77.76 48.64 79.9L46.02 79.66C46.5 77.56 46.5 76.06 46.5 74.76V73.5ZM36.18 82.64H49.06V87.86H38.86V89.74H36.2V85.9H46.42V84.7H36.18V82.64ZM36.2 89.1H49.54V91.16H36.2V89.1ZM56.0584 74.08H58.0784V76.18C58.0784 79.36 56.9184 82.44 53.9584 83.72L52.5984 81.76C55.0984 80.66 56.0584 78.34 56.0584 76.18V74.08ZM56.6984 74.08H58.7184V76.18C58.7184 78.3 59.6184 80.72 62.1984 81.88L61.0584 84C57.8184 82.66 56.6984 79.32 56.6984 76.18V74.08ZM63.4184 74.08H65.4184V76.18C65.4184 79.36 64.2984 82.68 61.0584 84L59.9384 81.88C62.4984 80.74 63.4184 78.34 63.4184 76.18V74.08ZM64.0784 74.08H66.0984V76.18C66.0984 78.42 67.0384 80.68 69.5584 81.76L68.1784 83.72C65.2184 82.46 64.0784 79.44 64.0784 76.18V74.08ZM52.6984 86.84H69.4584V89H52.6984V86.84ZM83.8569 72.76H86.5369V91.28H83.8569V72.76ZM78.3969 74.68H81.0369C81.0369 80.34 79.1169 84.98 72.5369 88.16L71.1569 86.04C76.4769 83.48 78.3969 80.12 78.3969 75.16V74.68ZM72.1369 74.68H79.6569V76.78H72.1369V74.68Z" fill="black"/>
<defs>
<clipPath id="clip0_106_251">
<rect width="38" height="38" fill="white" transform="translate(42.5 20.5)"/>
</clipPath>
</defs>
</svg>
